<?xml version="1.0" encoding="UTF-8" standalone="no"?>
<!-- Created with Inkscape (http://www.inkscape.org/) -->
<svg xmlns:inkscape="http://www.inkscape.org/namespaces/inkscape" xmlns:rdf="http://www.w3.org/1999/02/22-rdf-syntax-ns#" xmlns="http://www.w3.org/2000/svg" xmlns:xlink="http://www.w3.org/1999/xlink" xmlns:ns1="http://sozi.baierouge.fr" xmlns:cc="http://creativecommons.org/ns#" xmlns:sodipodi="http://sodipodi.sourceforge.net/DTD/sodipodi-0.dtd" xmlns:dc="http://purl.org/dc/elements/1.1/" id="svg2" xml:space="preserve" viewBox="0 0 176.1 89.392" version="1.1" inkscape:version="0.91 r13725">
  <g id="g10" transform="matrix(1.25 0 0 -1.25 0 89.392)">
    <g id="g12">
      <path id="path14" style="fill-rule:evenodd;fill:#abb5c0" d="m99.07 28.861c-0.109 0.133-0.293 0.469-0.558 1-0.403 0.828-0.961 2.149-1.684 3.961-0.824 2.028-1.945 3.199-3.359 3.52l-0.321 0.078h-0.039c-0.16 0.027-0.32 0.043-0.48 0.043h-2.879c-0.988-0.133-2.016-0.348-3.082-0.641 0.027 0.028 0.055 0.039 0.082 0.039 1.254 1.387 2.879 2.199 4.879 2.442 1.121 0.16 2.281 0.132 3.48-0.082 1.36-0.211 2.414-0.614 3.161-1.2 0.242-0.187 0.945-1.066 2.121-2.64 0.613-0.774 1.636-1.199 3.078-1.278 1.121-0.054 2.242 0.227 3.359 0.84 1.254 0.797 2.242 1.41 2.961 1.84 1.309 0.719 2.988 1.106 5.039 1.16 1.199 0.028 2.977-0.015 5.32-0.121 2.215 0 4.348-0.32 6.403-0.961l4.758-2.16c0.32-0.215 0.629-0.437 0.918-0.68 0.027-0.027 0.07-0.054 0.121-0.082l0.121-0.277c-0.028 0.023-0.055 0.039-0.082 0.039-1.813 1.067-3.625 1.774-5.438 2.121-2.297 0.453-4.551 0.625-6.761 0.52-2.481-0.082-4.668-0.508-6.559-1.282-0.883-0.375-2.082-1.066-3.602-2.082-1.574-1.066-2.746-1.769-3.519-2.117-0.613-0.265-1.68-0.414-3.199-0.441-1.387-0.051-2.426-0.281-3.121-0.68l-1.12-0.879zm-74.679 3.321c-0.055-0.028-0.094-0.039-0.121-0.039-0.106-0.028-0.215-0.055-0.321-0.079l-2.078-0.441c-0.082-0.027-0.148-0.043-0.203-0.043-0.984-0.156-1.957-0.238-2.918-0.238h-1.641l-4 0.199c-0.668 0.055-1.238 0.121-1.718 0.199-0.27 0.055-0.508 0.11-0.723 0.16-0.211 0.055-0.414 0.11-0.598 0.16l-0.402 0.122c-0.453 0.16-0.863 0.332-1.238 0.519l-1.559 1.16c-0.457 0.481-0.789 1.016-1 1.602-0.082 0.215-0.148 0.441-0.203 0.68l0.043-0.04c1.68-1.066 3.227-1.921 4.637-2.562 1.363-0.613 2.988-0.957 4.882-1.039 1.118-0.051 2.797-0.051 5.04 0 2.265-0.027 4.453 0.293 6.558 0.961 2.293 0.719 4.227 1.773 5.801 3.16 0.746 0.664 1.641 1.812 2.68 3.441 1.066 1.68 1.949 2.852 2.64 3.52 1.067 1.012 2.188 1.785 3.36 2.32 1.093 0.477 2.375 0.813 3.839 1 1.2 0.16 2.762 0.211 4.68 0.16 1.043-0.054 2.602-0.109 4.68-0.16 0.187 0 1.082-0.027 2.68-0.082 1.093-0.027 1.976-0.012 2.64 0.039 0.293 0.028 1.375 0.094 3.242 0.203 1.414 0.079 2.465 0.223 3.16 0.438 0.532 0.16 1.278 0.508 2.239 1.039 0.906 0.508 1.668 0.84 2.281 1 1.414 0.375 3.465 0.562 6.16 0.562 5.758 0 8.746 1.028 8.957 3.079 0.055-1.493-0.305-2.586-1.078-3.278-0.586-0.508-1.668-0.961-3.242-1.363-1.387-0.211-2.426-0.398-3.117-0.559-1.227-0.293-1.961-0.812-2.203-1.558-0.133-0.375-0.223-1.082-0.278-2.121-0.054-0.586-0.176-1.055-0.359-1.399-0.402 0.559-0.961 0.985-1.68 1.278l-0.281 0.121c-0.266 0.105-0.559 0.187-0.879 0.238l2.238 2.441c-1.761-0.906-3.972-1.492-6.64-1.761-3.094-0.157-5.438-0.344-7.039-0.559-1.762-0.238-4.762-0.918-9-2.039-1.707-0.453-2.813-0.773-3.321-0.961-0.054 0-0.105-0.012-0.16-0.039-0.105 0-0.199-0.016-0.281-0.039-1.52-0.055-2.852-0.176-4-0.363-0.078 0-0.16-0.012-0.238-0.039-0.774-0.079-1.454-0.2-2.039-0.36-1.79-0.453-3.602-1.187-5.442-2.199l-1-0.602c-0.133-0.05-0.254-0.117-0.359-0.199l-0.281-0.16c-3.172-2.027-5.786-3.48-7.84-4.359-0.106-0.055-0.227-0.106-0.36-0.16-0.238-0.106-0.465-0.2-0.679-0.282-0.239-0.078-0.465-0.172-0.68-0.281l-0.641-0.199c-0.078-0.028-0.144-0.051-0.199-0.078-0.133-0.055-0.266-0.094-0.402-0.121h0.004z" inkscape:connector-curvature="0"/>
      <path id="path16" style="fill-rule:evenodd;fill:#8d959e" d="m132.47 33.662c0.293-0.746 0.679-1.867 1.16-3.359 0.453-1.2 0.949-2.149 1.48-2.84-0.214 0.133-0.425 0.265-0.64 0.398l-0.641 0.442c-0.023 0.027-0.051 0.039-0.078 0.039-1.309 0.801-2.762 1.613-4.359 2.441-1.895 0.961-3.977 1.945-6.243 2.961-0.238 0.106-0.48 0.199-0.718 0.281-1.254 0.399-2.469 0.426-3.641 0.078-0.828-0.265-2.172-1.015-4.039-2.238-4.293-2.75-8.707-4.121-13.242-4.121h-0.281c-0.317 0.027-0.614 0.094-0.879 0.199-0.508 0.188-0.934 0.492-1.282 0.922l1.122 0.879c0.691 0.399 1.734 0.625 3.121 0.68 1.519 0.027 2.586 0.172 3.199 0.441 0.773 0.348 1.945 1.051 3.519 2.117 1.52 1.016 2.719 1.707 3.598 2.082 1.895 0.774 4.082 1.2 6.563 1.282 2.21 0.105 4.464-0.067 6.757-0.52 1.817-0.348 3.629-1.055 5.442-2.121 0.027-0.004 0.054-0.016 0.082-0.043zm2.84-6.32c0.375-0.239 0.746-0.492 1.121-0.758 0.347-0.242 0.679-0.496 1-0.762-0.215 0.082-0.414 0.16-0.602 0.242l-0.199 0.118c-0.586 0.32-1.094 0.75-1.52 1.281 0.055-0.028 0.121-0.067 0.2-0.121zm-86.482 14.281c0.055 0.027 0.11 0.039 0.16 0.039 0.508 0.188 1.614 0.508 3.321 0.961 4.242 1.121 7.242 1.801 9 2.039 1.601 0.215 3.949 0.402 7.039 0.559 2.668 0.269 4.882 0.855 6.64 1.761l-2.238-2.441c-1.336 0.297-3.121 0.297-5.359 0l-2.52-0.438-1.203-0.242c-0.051-0.027-0.106-0.039-0.16-0.039-2.399-0.613-4.278-1.066-5.637-1.359l-1.844-0.36h-0.156c-1.734-0.214-4.082-0.375-7.043-0.48z" inkscape:connector-curvature="0"/>
      <path id="path18" style="fill-rule:evenodd;fill:#ced1d6" d="m132.35 33.943c-0.051 0.028-0.094 0.051-0.118 0.082-0.292 0.239-0.601 0.465-0.921 0.68l-4.758 2.16c-2.055 0.637-4.188 0.957-6.403 0.957-2.343 0.11-4.117 0.149-5.32 0.121-2.051-0.05-3.73-0.441-5.039-1.16-0.719-0.426-1.707-1.039-2.961-1.84-1.117-0.613-2.238-0.894-3.359-0.84-1.438 0.079-2.465 0.508-3.078 1.282-1.176 1.574-1.879 2.453-2.121 2.64-0.747 0.586-1.801 0.985-3.161 1.2-1.199 0.21-2.359 0.238-3.48 0.078-2-0.239-3.625-1.055-4.879-2.438-0.027 0-0.055-0.015-0.082-0.043-0.824-0.238-1.664-0.531-2.52-0.879l-2.557-1.281c-2.238-1.305-4.613-3.199-7.121-5.68 0.269 0.508 0.547 0.934 0.843 1.282 0.45 0.507 1.118 1.093 2 1.761 1.145 0.852 1.852 1.399 2.118 1.637 0.508 0.453 1.718 1.828 3.64 4.121 1.442 1.68 2.813 2.867 4.121 3.559 1.305 0.668 2.774 0.801 4.399 0.402 0.933-0.242 2.348-0.695 4.238-1.359 1.469-0.403 2.695-0.442 3.684-0.121 0.664 0.187 1.8 0.8 3.398 1.839 1.199 0.801 2.309 1.293 3.32 1.481 1.172 0.238 2.375 0.144 3.598-0.281 0.563-0.215 1.828-0.895 3.801-2.039 1.414-0.829 2.816-1.254 4.199-1.282 1.363-0.023 2.348 0.055 2.961 0.243 0.481 0.183 1.266 0.679 2.359 1.48l0.442 0.277c0.215-0.132 0.426-0.254 0.64-0.359l6.04-4.238 0.042-0.043c0.106-0.106 0.211-0.227 0.317-0.36 0.668-0.8 1.242-1.812 1.719-3.039zm-34.76 20.36c0-1.946-0.133-3.282-0.402-4-0.426-1.172-1.383-2.133-2.879-2.879-1.012-0.481-2.227-0.801-3.641-0.961-0.691-0.055-1.957-0.082-3.801-0.082-0.879-0.024-2.012-0.184-3.398-0.477-1.574-0.347-2.707-0.547-3.399-0.601-1.867-0.188-3.242-0.52-4.121-1 0.055 1.039 0.149 1.746 0.281 2.121 0.239 0.746 0.973 1.265 2.2 1.558 0.691 0.161 1.734 0.348 3.121 0.559 1.57 0.402 2.652 0.855 3.238 1.363 0.773 0.692 1.133 1.785 1.082 3.278-0.215-2.051-3.203-3.079-8.961-3.079-2.695 0-4.746-0.187-6.16-0.562-0.613-0.16-1.375-0.492-2.281-1-0.957-0.531-1.707-0.879-2.239-1.039-0.695-0.215-1.746-0.359-3.16-0.438-1.867-0.109-2.949-0.175-3.242-0.203-0.664-0.051-1.543-0.066-2.637-0.039-1.601 0.055-2.496 0.082-2.679 0.082-2.082 0.051-3.641 0.106-4.684 0.16-1.918 0.051-3.476 0-4.68-0.16-1.464-0.187-2.746-0.523-3.839-1-1.172-0.535-2.293-1.308-3.36-2.32-0.691-0.668-1.574-1.84-2.64-3.52-1.039-1.629-1.934-2.777-2.68-3.441-1.57-1.387-3.504-2.441-5.801-3.16-2.105-0.668-4.293-0.988-6.558-0.961-2.239-0.051-3.918-0.051-5.04 0-1.894 0.082-3.519 0.426-4.878 1.039-1.414 0.641-2.961 1.496-4.641 2.562l-0.039 0.04c-0.11 0.535-0.16 1.121-0.16 1.761l0.039 0.637 0.961 3.281c0.133 0.242 0.265 0.492 0.398 0.762h0.039c3.574-0.109 6.094-0.149 7.563-0.121 2.824 0.051 5.265 0.32 7.316 0.801 1.977 0.453 4.149 1.707 6.524 3.757 3.039 2.614 5.039 4.188 6 4.723 2.558 1.41 5.906 2.106 10.039 2.078 2.347-0.027 5.851-0.199 10.519-0.519h4.762c0.371 0 1.359-0.149 2.957-0.442 1.254-0.238 2.242-0.277 2.961-0.117 0.668 0.16 1.746 0.68 3.238 1.559 1.254 0.718 2.484 1.093 3.684 1.121 1.867 0.051 2.906 0.117 3.117 0.199 0.562 0.266 0.988 1.094 1.281 2.48 0.188 0.985 0.293 2.387 0.32 4.2 0 2 0.051 3.414 0.161 4.238 1.332 0.402 2.824 0.602 4.48 0.602 0.238-0.133 0.481-0.282 0.719-0.442l10.519-7.797 0.121-0.121c0.532-0.453 1.211-1.121 2.04-2 0.507-0.508 1.281-1.32 2.32-2.441v-0.039zm-29.68-28.879c1.094-0.27 2.16-0.254 3.199 0.039l-0.921-1.082-0.958-1.078c-0.054-0.028-0.109-0.082-0.16-0.16l-0.281-0.282c-0.215-0.238-0.441-0.492-0.68-0.758-0.214 0.614-0.332 1.25-0.359 1.918v0.2c-0.027 0.402-0.016 0.816 0.039 1.242 0.027 0 0.066-0.012 0.121-0.039z" inkscape:connector-curvature="0"/>
      <path id="path20" style="fill-rule:evenodd;fill:#dddee0" d="m70.188 24.381 0.921 1.082c-1.039-0.293-2.105-0.309-3.199-0.039 0.32 1.945 1.414 3.972 3.278 6.078 0.347 0.402 0.683 0.762 1 1.082 1.441 1.68 2.253 2.625 2.441 2.84 1.094 1.519 1.68 2.945 1.762 4.281 0.023 0.293 0.023 0.574 0 0.84-0.055 0.961-0.321 1.746-0.801 2.359 0.187 0.348 0.305 0.813 0.359 1.399 0.879 0.48 2.254 0.816 4.121 1 0.692 0.054 1.825 0.254 3.399 0.601 1.386 0.293 2.519 0.453 3.398 0.481 1.844 0 3.11 0.027 3.801 0.078 1.414 0.16 2.629 0.48 3.641 0.961 1.492 0.746 2.453 1.707 2.879 2.879 0.269 0.722 0.402 2.054 0.402 4 1.707-1.731 3.094-2.907 4.16-3.52 1.254-0.691 3.414-1.226 6.48-1.598 2.934-0.347 5.094-0.988 6.481-1.921 0.293-0.188 2.973-1.774 8.039-4.758 0.508-0.297 1-0.59 1.48-0.883-0.214 0.109-0.425 0.227-0.64 0.359l-0.442-0.277c-1.093-0.801-1.878-1.293-2.359-1.48-0.613-0.188-1.598-0.266-2.961-0.243-1.383 0.028-2.785 0.453-4.199 1.282-1.973 1.148-3.238 1.828-3.801 2.039-1.223 0.429-2.426 0.523-3.598 0.281-1.015-0.188-2.121-0.68-3.32-1.481-1.598-1.039-2.734-1.652-3.398-1.839-0.989-0.321-2.215-0.282-3.684 0.121-1.89 0.664-3.305 1.121-4.238 1.359-1.625 0.399-3.094 0.266-4.399-0.398-1.308-0.696-2.679-1.883-4.121-3.563-1.918-2.293-3.132-3.664-3.64-4.117-0.266-0.242-0.973-0.789-2.118-1.641-0.882-0.668-1.55-1.254-2-1.761-0.296-0.348-0.574-0.774-0.843-1.282l-0.08-0.078c-0.911-0.91-2.309-2.414-4.203-4.523zm63.441 5.922c0.48-1.2 1.039-2.188 1.68-2.961-0.079 0.054-0.145 0.093-0.2 0.121-0.535 0.691-1.023 1.64-1.48 2.84zm-126.68 12.281c0.586 1.012 1.371 2.039 2.36 3.078 1.546 1.625 3.8 3.453 6.761 5.481 4.426 3.066 9.946 6.132 16.559 9.199 3.785 1.761 9.547 4.336 17.281 7.722 4.692 2.157 9.68 3.305 14.961 3.438 5.652 0.133 10.652-0.945 15-3.238 0.664-0.348 1.332-0.723 2-1.121-1.656 0-3.148-0.2-4.48-0.602-0.11-0.824-0.161-2.238-0.161-4.238-0.027-1.813-0.132-3.215-0.32-4.2-0.293-1.386-0.719-2.214-1.281-2.48-0.215-0.082-1.254-0.148-3.117-0.199-1.203-0.028-2.43-0.403-3.684-1.121-1.492-0.879-2.57-1.399-3.238-1.559-0.719-0.16-1.707-0.121-2.961 0.117-1.602 0.293-2.586 0.442-2.961 0.442h-4.758c-4.668 0.32-8.176 0.492-10.519 0.519-4.137 0.028-7.481-0.668-10.043-2.078-0.957-0.535-2.957-2.109-6-4.723-2.371-2.05-4.547-3.304-6.52-3.757-2.051-0.481-4.492-0.75-7.32-0.801-1.465-0.028-3.985 0.012-7.559 0.121zm91.399-12.441c-0.344 0.613-0.664 1.332-0.957 2.16-0.586 1.625-1.243 2.867-1.961 3.718-0.614 0.696-1.266 1.133-1.961 1.321 1.414-0.321 2.535-1.492 3.359-3.52 0.723-1.812 1.281-3.133 1.684-3.957-0.055 0.078-0.11 0.172-0.164 0.278zm-61.52 8.48c1.84 1.012 3.656 1.746 5.442 2.199 0.585 0.16 1.265 0.281 2.039 0.36-1.735-0.266-3.426-0.747-5.079-1.438-0.109-0.027-0.203-0.066-0.281-0.121-0.375-0.16-0.734-0.336-1.078-0.52-0.348-0.16-0.695-0.32-1.043-0.48z" inkscape:connector-curvature="0"/>
      <path id="path22" style="fill-rule:evenodd;fill:#504a3f" d="m73.148 24.103c-1.464-1.226-2.492-2.652-3.078-4.281l-0.043-0.199c-0.425-0.375-0.812-0.641-1.156-0.801-0.187 1.281-0.121 2.602 0.199 3.961 0.024 0.16 0.078 0.332 0.16 0.52l0.958 1.078c1.894 2.109 3.292 3.613 4.203 4.519l0.078 0.082c2.508 2.481 4.883 4.371 7.121 5.68l2.558 1.281c0.856 0.348 1.696 0.641 2.52 0.879 1.066 0.293 2.094 0.508 3.082 0.641h2.879c0.16 0 0.32-0.016 0.48-0.039h0.039l0.321-0.082c0.695-0.188 1.347-0.625 1.961-1.321-1.094-0.558-2.68-1.183-4.762-1.878l-0.277 0.039-1.883 0.441c-2.746-0.105-5.598-1.227-8.559-3.359-2.586-1.868-4.746-4.094-6.48-6.68l-0.321-0.481zm28.879-0.64c-1.117 0.293-1.797 0.68-2.039 1.16-0.211 0.426-0.304 1.453-0.277 3.078l0.637 0.242c0.269-0.105 0.562-0.175 0.882-0.199h0.282c4.531 0 8.945 1.371 13.238 4.117 1.867 1.227 3.215 1.977 4.039 2.242 1.176 0.348 2.387 0.321 3.641-0.082-1.547-0.64-2.692-1.132-3.442-1.48-1.011-0.453-1.984-1.051-2.918-1.801-0.425-0.316-1.308-1.078-2.64-2.277l-2.078-1.961c-1.735-1.574-2.989-2.641-3.762-3.199l-0.68-0.442c-0.558-0.16-1.254-0.172-2.082-0.039-0.933 0.215-1.613 0.371-2.039 0.481l-0.762 0.16zm11.84-19.121c0.024 0.027 0.051 0.039 0.078 0.039 1.016 0.773 1.613 1.867 1.801 3.281 0.055 0.375 0 1.75-0.16 4.121-0.106 1.707 0.094 2.973 0.601 3.801 1.145-0.453 2.371-1.856 3.68-4.203 1.172-2.133 2.453-3.266 3.84-3.399 0.879-0.078 1.707 0 2.48 0.243 0.348 0.132 1.079 0.492 2.2 1.078 0.398 0.215 1.027 0.453 1.879 0.722 0.882 0.289 1.507 0.532 1.882 0.719 1.2 0.664 1.868 2.25 2 4.758 0.078 1.121-0.015 3.055-0.281 5.801-0.215 1.84-0.851 3.32-1.918 4.441-1.121 1.117-2.601 1.797-4.441 2.039-0.266 1.149-0.055 1.973 0.64 2.481 0.051 0.027 0.118 0.066 0.2 0.117l1.039 0.402c1.601-0.828 3.054-1.64 4.359-2.441 0.027 0 0.055-0.012 0.082-0.039 0.48-0.426 0.945-0.852 1.398-1.282l0.278-0.238 0.082-0.082c0.719-0.664 1.359-1.32 1.918-1.957 2.402-2.719 3.519-5.242 3.359-7.562-0.105-1.438-1.504-3.36-4.199-5.758-2.559-2.293-4.664-3.653-6.32-4.082-1.438-0.371-4.039-0.719-7.797-1.039-3.227-0.266-5.84-0.801-7.84-1.602l-0.84-0.359zm-38.28 38.562c0.48-0.617 0.746-1.402 0.801-2.363l-0.161-0.16c-1.175-1.25-2.242-3.078-3.203-5.477-0.238-0.617-0.515-1.386-0.839-2.32-0.317-0.32-0.653-0.68-1-1.082-1.864-2.106-2.958-4.133-3.278-6.078-0.055 0.023-0.094 0.039-0.121 0.039-0.055-0.426-0.066-0.84-0.039-1.242-0.613-0.399-1.414-0.774-2.402-1.118-1.465-0.535-2.36-0.867-2.68-1-1.012-0.48-1.824-1.093-2.438-1.839-0.507-0.614-0.882-1.508-1.121-2.684-0.132-0.637-0.293-1.598-0.48-2.879-0.293-1.332-0.465-2.867-0.52-4.598-0.027-0.882-0.027-2.414 0-4.601h-0.082c-0.398 3.547-0.664 6.226-0.797 8.039-0.242 3.254 0 5.84 0.719 7.762 0.481 1.277 1.106 2.304 1.879 3.078 0.402 0.375 0.817 0.629 1.242 0.762 0.664 0.238 1.106 0.414 1.321 0.519 1.304 0.719 2.199 1.668 2.679 2.84 0.399 0.961 0.575 2.293 0.52 4-0.106 2.535-0.281 4.144-0.52 4.84-0.586 1.629-1.84 2.16-3.761 1.601-0.559-0.16-1.227-0.574-2-1.242-0.399-0.371-0.985-0.906-1.758-1.598-0.668-0.562-1.137-0.921-1.403-1.082-0.425-0.293-0.878-0.519-1.359-0.679-0.348-0.16-0.785-0.282-1.32-0.36l-1.399-0.32c-0.695-0.215-1.386-0.598-2.082-1.16-0.371-0.32-0.84-0.746-1.398-1.281-0.508-0.426-1.082-0.719-1.719-0.879-0.883-0.215-1.988-0.199-3.32 0.039-1.547 0.293-2.375 0.789-2.481 1.48 0.907 0.188 1.891 0.321 2.957 0.403 0.75 0.132 1.524 0.613 2.321 1.437 0.746 0.856 1.32 1.469 1.722 1.84 0.664 0.668 1.344 1.082 2.039 1.242 0.559 0.133 1.602 0.106 3.121-0.082 1.227 0 1.719 0.547 1.481 1.641-0.137 0.746-0.773 1.281-1.922 1.601-1.254 0.188-2.055 0.36-2.398 0.52-1.016 0.426-1.629 0.801-1.84 1.121 0.078 0.023 0.172 0.039 0.277 0.039 2.961 0.105 5.309 0.266 7.043 0.48h0.156l1.844 0.36c1.359 0.293 3.238 0.746 5.637 1.359 0.054 0 0.109 0.016 0.16 0.039l1.203 0.242 2.52 0.438c2.238 0.297 4.023 0.297 5.359 0 0.32-0.051 0.613-0.133 0.879-0.238l0.281-0.121c0.719-0.293 1.278-0.719 1.68-1.278zm13.918-39.48c-0.348-1.574-0.399-2.696-0.16-3.36-2.586 0.133-4.813 0.598-6.68 1.399l0.043 0.238c0.371 1.949 1.105 3.68 2.199 5.203 0.317 0.449 0.906 1.024 1.758 1.719 0.883 0.691 1.469 1.238 1.762 1.641 0.265 0.347 0.597 1.039 1 2.078 0.347 0.961 0.718 1.652 1.117 2.082 0.187-1.176 0.215-2.547 0.082-4.121-0.027-0.426-0.199-1.774-0.52-4.039-0.082-0.696-0.281-1.641-0.601-2.84zm-48.078 3.558c-0.696 1.922-0.801 4.895-0.321 8.922 2.375 0.133 4.614 0.692 6.719 1.68 1.52 0.691 3.52 1.934 6 3.719l1.043-0.52h0.039c0-4.027-1.308-6.84-3.922-8.441-0.105-0.078-1.226-0.481-3.359-1.199-1.414-0.508-2.332-1.2-2.758-2.079-0.242-0.507-0.309-1.336-0.203-2.484-1.039 0.164-2.117 0.297-3.238 0.402zm-5.762 23.602c-0.691-5.547-1.039-9.481-1.039-11.801-0.215 3.945-0.359 7-0.441 9.16-0.133 3.918 0.203 6.867 1 8.84l0.64 1.238 1 0.602c0.348 0.16 0.695 0.32 1.043 0.48-0.242-0.8-0.59-1.933-1.043-3.402-0.558-1.84-0.906-3.266-1.039-4.277l-0.121-0.84zm-17.078-7.84c-0.32 0.133-0.563 0.785-0.719 1.957-0.055 0.535-0.148 1.707-0.281 3.52-0.055 0.214-0.082 0.535-0.082 0.961-0.106 1.121-0.238 1.839-0.399 2.16h1.641c0.961 0 1.934 0.082 2.918 0.238-0.16-0.316-0.305-0.625-0.438-0.918-0.425-0.984-0.894-2.293-1.402-3.918-0.664-2.215-1.078-3.547-1.238-4z" inkscape:connector-curvature="0"/>
      <path id="path24" style="fill-rule:evenodd;fill:#635b4f" d="m100.35 27.943-0.637-0.242c-0.027-1.625 0.066-2.652 0.277-3.078 0.242-0.48 0.922-0.867 2.039-1.16l-0.797-0.121c-1.949-0.453-4.054-1.293-6.32-2.52-1.254-0.668-3.187-1.851-5.801-3.558-0.105 0.32-0.16 0.707-0.16 1.16 0.028 1.758 1.309 3.945 3.84 6.558 1.066 1.121 2.336 2.309 3.801 3.559l1.762 1.602c0.05-0.106 0.105-0.2 0.16-0.282 0.265-0.531 0.449-0.867 0.558-1 0.344-0.426 0.774-0.73 1.278-0.918zm13.523-23.601-4.121-1.68 0.121 0.082h0.039c0 0.024 0.012 0.039 0.039 0.039l0.039 0.039c0.11 0.082 0.215 0.149 0.321 0.203l1.921 2.078c0 0.051 0.012 0.094 0.04 0.118 0.64 1.066 1.042 2.148 1.199 3.242-0.078 2.398-0.133 4.305-0.157 5.719-0.082 2.586 0.372 4.253 1.36 5 1.84-0.852 3.305-2.465 4.398-4.84 0.133-0.293 0.309-0.852 0.52-1.68 0.215-0.719 0.508-1.187 0.879-1.398 1.07-0.668 1.922-0.602 2.562 0.199l1.199 2.359c0.614 1.145 1.012 1.973 1.2 2.481 0.293 0.773 0.425 1.718 0.398 2.84-0.051 1.414-0.289 2.585-0.719 3.519-0.48 1.066-1.265 2.012-2.359 2.84-1.625 1.199-3.426 1.332-5.398 0.398-0.563-0.265-1.403-0.718-2.52-1.359-1.043-0.586-1.949-0.961-2.719-1.117-1.043-0.242-2.551-0.281-4.523-0.121 0.773 0.558 2.027 1.625 3.762 3.199l2.078 1.961c1.336 1.199 2.215 1.961 2.64 2.281 0.934 0.746 1.91 1.344 2.922 1.797 0.746 0.348 1.891 0.84 3.438 1.484 0.242-0.082 0.484-0.175 0.722-0.281 2.266-1.016 4.348-2 6.239-2.961l-1.039-0.402c-0.082-0.051-0.149-0.09-0.2-0.117-0.695-0.508-0.906-1.332-0.64-2.481 1.84-0.242 3.32-0.918 4.441-2.039 1.067-1.121 1.703-2.601 1.918-4.441 0.266-2.746 0.359-4.68 0.281-5.801-0.132-2.508-0.8-4.094-2-4.758-0.375-0.187-1-0.43-1.882-0.719-0.852-0.269-1.481-0.507-1.879-0.722-1.121-0.586-1.852-0.946-2.2-1.078-0.773-0.243-1.601-0.321-2.48-0.243-1.387 0.133-2.668 1.266-3.84 3.399-1.309 2.347-2.535 3.75-3.68 4.203-0.507-0.828-0.707-2.094-0.601-3.801 0.16-2.375 0.215-3.746 0.16-4.121-0.188-1.414-0.785-2.508-1.801-3.281-0.027 0-0.051-0.012-0.078-0.039zm-69.562 36.84c0.082 0.027 0.16 0.039 0.242 0.039 1.144 0.187 2.476 0.308 4 0.363 0.211-0.32 0.824-0.695 1.84-1.121 0.343-0.16 1.144-0.332 2.398-0.52 1.149-0.32 1.785-0.855 1.922-1.601 0.238-1.094-0.254-1.641-1.481-1.641-1.519 0.188-2.562 0.215-3.121 0.082-0.695-0.16-1.375-0.574-2.039-1.242-0.402-0.371-0.976-0.984-1.722-1.84-0.797-0.824-1.571-1.305-2.321-1.437-1.066-0.082-2.05-0.215-2.957-0.403 0.106-0.691 0.934-1.183 2.481-1.48 1.332-0.238 2.437-0.25 3.32-0.039 0.637 0.16 1.211 0.453 1.719 0.879 0.558 0.535 1.027 0.961 1.398 1.281 0.696 0.562 1.387 0.949 2.082 1.16-0.773-0.398-1.629-1.012-2.562-1.84-0.266-0.215-0.957-0.84-2.078-1.879-0.586-0.535-1.149-0.933-1.68-1.203-0.535-0.238-1.199-0.41-2-0.519-1.309 0.082-2.281 0.121-2.922 0.121-1.172 0.027-1.957-0.305-2.359-1-0.16-0.293-0.375-1.641-0.641-4.039-0.023-0.266-0.105-1-0.238-2.2-0.082-0.855-0.176-1.574-0.281-2.16l-0.121-0.722c-1.094-4.344-2.598-6.493-4.52-6.438 1.68 1.973 2.668 4.371 2.961 7.199 0.055 0.399 0.082 3.094 0.082 8.082l-0.043 3.52 0.121 0.84c0.133 1.011 0.481 2.441 1.039 4.281 0.453 1.465 0.801 2.598 1.043 3.398 0.344 0.188 0.703 0.36 1.078 0.52-0.027-0.078-0.039-0.172-0.039-0.281-0.055-0.449-0.226-1.117-0.519-2-0.188-0.824-0.203-1.559-0.043-2.199 0.507-1.868 2.16-2.575 4.961-2.118 1.066 0.157 1.894 0.614 2.48 1.36 0.641 0.797 0.856 1.785 0.641 2.957-0.106 0.48-0.375 1-0.801 1.562-0.535 0.614-0.895 1.067-1.078 1.36-0.215 0.32-0.297 0.625-0.242 0.918zm5.32-35.559-1 0.199c-0.745 0.188-1.534 0.348-2.358 0.481-0.106 0.027-0.2 0.039-0.282 0.039-0.426 0.082-0.867 0.16-1.32 0.242-0.106 1.144-0.039 1.973 0.203 2.48 0.426 0.879 1.344 1.575 2.758 2.079 2.133 0.722 3.254 1.121 3.359 1.199 2.614 1.601 3.922 4.414 3.922 8.441h-0.039l0.156 0.121c1.551 1.25 2.602 2.961 3.161 5.121 0.617 2.317 0.429 4.356-0.559 6.118-0.774 1.332-1.719 2.066-2.84 2.199 0.481 0.16 0.934 0.386 1.359 0.683 0.266 0.157 0.735 0.516 1.403 1.078 0.769 0.696 1.359 1.227 1.758 1.602 0.773 0.664 1.441 1.078 2 1.238 1.921 0.559 3.175 0.028 3.761-1.601 0.239-0.692 0.414-2.305 0.52-4.84 0.055-1.707-0.121-3.039-0.52-4-0.48-1.172-1.375-2.117-2.679-2.84-0.215-0.105-0.657-0.281-1.321-0.519-0.425-0.133-0.84-0.387-1.242-0.758-0.773-0.774-1.398-1.801-1.879-3.082-0.719-1.918-0.961-4.508-0.719-7.758 0.133-1.817 0.399-4.496 0.797-8.043l-0.437-0.078-0.442-0.043c0 0.695-0.039 1.199-0.121 1.519-0.476 2.563-1.906 3.653-4.277 3.282-2.375-0.344-3.414-1.868-3.121-4.559zm15.719 17.48c-0.532-1.015-0.934-2.066-1.2-3.16-0.265-1.039-0.546-2.535-0.839-4.48-0.265-1.973-0.398-4.375-0.398-7.199l0.117-2.2-4.918-0.562c-0.027 2.187-0.027 3.719 0 4.601 0.055 1.735 0.227 3.266 0.52 4.598 0.187 1.281 0.348 2.242 0.48 2.883 0.239 1.172 0.614 2.066 1.121 2.68 0.614 0.746 1.426 1.359 2.438 1.839 0.32 0.133 1.215 0.465 2.68 1zm11.043 17.438c0.023-0.266 0.023-0.543 0-0.84-0.082-1.332-0.668-2.758-1.762-4.277-0.188-0.215-1-1.16-2.441-2.844 0.32 0.934 0.601 1.707 0.839 2.32 0.961 2.403 2.028 4.227 3.203 5.481l0.161 0.16zm20.758-40.398c-3.492-0.133-6.093-0.161-7.8-0.079-0.239 0.664-0.184 1.786 0.16 3.36 0.906 0.316 1.414 1.023 1.519 2.117-0.023 1.441 0.043 2.602 0.2 3.48 3.711 0.161 5.867 0.321 6.484 0.481 1.785 0.508 3.504 1.867 5.156 4.082-0.183-0.348-0.398-1.027-0.64-2.043-0.211-0.852-0.516-1.516-0.918-2-0.32-0.426-1.07-0.957-2.24-1.598-1.148-0.613-1.855-1.133-2.121-1.562-0.453-0.746-0.601-2.039-0.441-3.879 0.082-1.172 0.297-1.961 0.64-2.359zm-27.32 14.839c-0.344-0.398-0.719-0.668-1.117-0.8-0.883 1.175-1.055 3.199-0.523 6.082 0.16 0.824 0.363 1.691 0.601 2.601l0.281 0.278c0.051 0.082 0.106 0.132 0.16 0.16-0.082-0.188-0.136-0.36-0.16-0.52-0.32-1.359-0.386-2.68-0.199-3.957 0.344 0.156 0.731 0.426 1.156 0.797-0.476-1.441-0.543-2.988-0.199-4.641zm-45.437 17.2c-1.657-2.801-3.321-6.614-5-11.438l-0.723-2.082-0.039 2.082-0.039 2c0.16 0.453 0.574 1.785 1.238 4 0.508 1.625 0.977 2.934 1.402 3.918 0.133 0.293 0.278 0.602 0.438 0.918 0.055 0 0.121 0.016 0.203 0.043l2.078 0.441c0.106 0.024 0.215 0.051 0.321 0.079 0.027 0 0.066 0.011 0.121 0.039z" inkscape:connector-curvature="0"/>
      <path id="path26" style="fill-rule:evenodd;fill:#797061" d="m57.59 5.424 0.437 0.078h0.082l4.918 0.562-0.117 2.2c0 2.824 0.133 5.226 0.399 7.199 0.293 1.945 0.574 3.441 0.839 4.48 0.293 0.559 0.735 1.145 1.321 1.758 0.746 0.723 1.347 1.32 1.801 1.801l0.48 0.519c0.027-0.668 0.145-1.304 0.359-1.918 0.239 0.266 0.465 0.52 0.68 0.758-0.238-0.906-0.441-1.773-0.601-2.597-0.532-2.883-0.36-4.911 0.523-6.082 0.398 0.132 0.773 0.398 1.117 0.8 0.133-0.613 0.309-1.093 0.52-1.441l-0.118-1.199c0.641-0.078 2.118-0.321 4.438-0.719 2.137-0.32 3.52-0.336 4.16-0.043 1.094 0.484 1.949 1.789 2.563 3.922 0.879 2.984 1.386 4.613 1.519 4.879 0.746 1.359 1.625 2.308 2.641 2.84 0.637 0.32 1.797 0.75 3.476 1.281 1.309 0.48 2.922 1.601 4.844 3.359 0.797 0.75 1.277 1.492 1.438 2.242 0.082 0.321 0.121 1.293 0.121 2.918l-5.039 1.161 0.277-0.039c2.082 0.695 3.668 1.32 4.762 1.878 0.718-0.851 1.375-2.093 1.961-3.718 0.293-0.828 0.613-1.547 0.957-2.16l-1.758-1.602c-1.336-0.773-2.602-1.957-3.801-3.559-2.535-2.613-3.812-4.8-3.84-6.558l-2.238-5c-1.707-3.735-3.16-7.668-4.363-11.801l0.121-0.082c-0.055 0.027-0.106 0.055-0.16 0.082-4.055 1.867-6.922 3.055-8.602 3.559-2.957 0.882-6.094 1.199-9.398 0.961-2.829-0.321-5.067-0.559-6.719-0.719zm40.32-5.281c-3.574-0.133-6.226-0.172-7.961-0.118-2.906 0.106-5.375 0.598-7.398 1.477l0.16 0.203-0.043-0.242c1.867-0.801 4.094-1.266 6.68-1.399 1.707-0.082 4.308-0.054 7.8 0.079h0.762zm9.719 1.718c-0.481-0.16-0.824-0.281-1.039-0.359-0.852-0.293-1.719-0.531-2.602-0.719 0.293 0.082 0.574 0.16 0.84 0.242l0.082 0.039c0.426 0.161 1.145 0.371 2.16 0.641 0.16 0.051 0.344 0.105 0.559 0.156zm-58 3.762c0.027 0 0.039-0.016 0.039-0.043-0.348 0.082-0.691 0.16-1.039 0.242l1-0.199zm-47.482 13.398c0.747 0.133 1.653 0.348 2.723 0.641 0.586 0.16 1.426 0.387 2.52 0.68 0.425 3.336 0.48 5.441 0.16 6.32-0.43 1.094-1.746 2.469-3.961 4.121 0.879 1.813 1.64 3.371 2.281 4.68 0.211-0.586 0.543-1.121 1-1.598l1.559-1.16c0.375-0.187 0.785-0.363 1.238-0.523l0.402-0.118c0.184-0.054 0.387-0.105 0.598-0.16 0.215-0.054 0.453-0.105 0.723-0.16-0.082-0.238-0.149-0.519-0.203-0.84-0.106-0.801-0.133-1.601-0.079-2.398 0.055-0.961 0.239-1.723 0.559-2.281 0.426-0.747 1.336-1.282 2.723-1.602 1.414-0.32 2.277-0.746 2.597-1.281 0.508-0.852 0.266-1.907-0.718-3.16-0.536-0.692-1.282-1.598-2.243-2.719-0.449-0.879-0.851-1.531-1.199-1.957-0.32-0.375-0.851-0.922-1.598-1.641-0.269-0.269-0.453-0.48-0.562-0.64 1.148-0.082 2.176-0.254 3.082-0.52 0.051 1.465 0.414 2.785 1.078 3.961 0.32 0.559 0.883 1.172 1.68 1.84 0.883 0.719 1.469 1.293 1.762 1.719 0.16 0.132 0.281 0.304 0.359 0.519l0.039-2.082 0.723 2.082c1.679 4.824 3.343 8.641 5 11.438 0.132 0.027 0.265 0.07 0.398 0.121 0.055 0.027 0.121 0.054 0.199 0.082l0.641 0.199c0.215 0.105 0.441 0.199 0.68 0.281 0.214 0.078 0.441 0.172 0.679 0.278 0.133 0.054 0.254 0.109 0.36 0.16 2.054 0.882 4.668 2.336 7.84 4.363l0.281 0.16c0.105 0.078 0.226 0.145 0.359 0.199l-0.64-1.242c-0.797-1.973-1.133-4.922-1-8.84 0.082-2.16 0.226-5.215 0.441-9.16 0 2.32 0.348 6.254 1.039 11.801l0.043-3.52c0-4.988-0.027-7.683-0.082-8.082-0.293-2.828-1.281-5.226-2.961-7.199 1.922-0.055 3.426 2.094 4.52 6.442l0.121 0.718v-0.601c0.027-1.813-0.172-3.133-0.598-3.961-0.453-0.93-1.414-1.84-2.883-2.719-2.773-1.652-4.867-3.078-6.277-4.281-0.75 0.027-1.27 0.054-1.563 0.082-2.371 0.265-4.48 1.015-6.32 2.242l0.16-0.082c0.133 0.32 0.309 0.852 0.52 1.602 0.187-0.934 0.64-1.497 1.363-1.684 0.293-0.051 1.227-0.039 2.797 0.043 2.402 0.105 4.148 0.812 5.242 2.117 0.934 1.121 1.504 2.949 1.719 5.481 0.133 1.921 0.133 4.175 0 6.761-0.055 0.934-0.414 2.082-1.078 3.438-0.668 1.414-1.028 2.414-1.082 3l-3.719-1.598-0.922-1.121c-0.957-0.48-1.68-1.082-2.16-1.801-0.133-0.183-0.664-1.183-1.598-3-0.933-1.785-1.508-3.547-1.722-5.281-0.051-0.531-0.227-1.625-0.52-3.277-0.211-1.629-0.266-2.907-0.16-3.84-1.84 1.144-3.453 1.89-4.84 2.238-1.465 0.402-3.773 0.613-6.918 0.641l-5.242 4.562 0.082 0.078 0.558 1.039zm1.082 11.082c-0.136-0.293-0.269-0.585-0.402-0.882l0.242 0.562c0.051 0.106 0.106 0.211 0.16 0.32zm35.719 9.52c0.078 0.055 0.172 0.094 0.281 0.121-0.109-0.137-0.214-0.269-0.32-0.402 0 0.105 0.012 0.199 0.039 0.281z" inkscape:connector-curvature="0"/>
      <path id="path28" style="fill-rule:evenodd;fill:#867b6c" d="m70.348 13.541 0.121-0.238c0.933 0.535 1.719 1.707 2.359 3.519 0.641 1.785 1.414 2.934 2.32 3.442 0.375 0.183 1.028 0.277 1.961 0.277 0.907-0.023 1.504 0.043 1.801 0.203 0.586 0.266 0.891 0.559 0.918 0.879l0.121 1.281c0.746 2.133 2.531 4.321 5.36 6.559l2.078 1.64c0.613 0.668 0.816 1.493 0.601 2.481l-10.16-6.402c-2.266-1.356-3.828-2.383-4.68-3.079l0.317 0.481c1.734 2.586 3.894 4.812 6.484 6.68 2.957 2.132 5.813 3.254 8.559 3.359l1.883-0.441 5.039-1.157c0-1.629-0.039-2.601-0.121-2.922-0.161-0.746-0.641-1.492-1.438-2.238-1.922-1.762-3.535-2.883-4.844-3.363-1.679-0.531-2.839-0.957-3.476-1.277-1.016-0.536-1.895-1.481-2.641-2.844-0.133-0.266-0.64-1.891-1.519-4.879-0.614-2.133-1.469-3.438-2.563-3.918-0.64-0.293-2.023-0.281-4.16 0.039-2.316 0.402-3.797 0.641-4.438 0.719l0.118 1.199zm-66.758 17.242c2.215-1.652 3.531-3.027 3.961-4.121 0.32-0.879 0.265-2.984-0.16-6.32-1.094-0.293-1.934-0.52-2.52-0.68-1.066-0.293-1.976-0.508-2.723-0.641 0.188 0.403 0.454 1.094 0.801 2.082 0.321 0.907 0.586 1.559 0.801 1.961 0.531 0.907 0.961 1.664 1.277 2.278 0.618 1.148 0.883 1.972 0.801 2.48-0.105 0.668-0.398 1.188-0.879 1.559-0.398 0.297-0.972 0.535-1.719 0.722l0.321 0.719 0.039-0.039zm21.078-3.121 0.922 1.121 3.719 1.598c0.054-0.586 0.414-1.586 1.082-3 0.664-1.356 1.023-2.504 1.078-3.438 0.133-2.586 0.133-4.84 0-6.761-0.215-2.532-0.785-4.36-1.719-5.481-1.094-1.305-2.84-2.012-5.242-2.117-1.57-0.082-2.504-0.094-2.797-0.043-0.723 0.187-1.176 0.75-1.363 1.684 0.214 0.718 0.496 1.8 0.84 3.238 0.347 1.469 0.617 2.492 0.8 3.082 0.082 0.265 0.266 1.144 0.563 2.637 0.183 0.988 0.465 1.828 0.84 2.523 0.773 1.547 1.398 2.746 1.879 3.598 0.773 1.386 1.519 2.336 2.238 2.84l-1.399-0.922-1.441-0.559z" inkscape:connector-curvature="0"/>
      <path id="path30" style="fill-rule:evenodd;fill:#706759" d="m102.03 23.463 0.762-0.16c0.426-0.106 1.106-0.266 2.039-0.481 0.828-0.133 1.52-0.121 2.082 0.039l0.68 0.442c1.972-0.16 3.48-0.121 4.519 0.121 0.774 0.156 1.68 0.531 2.719 1.117 1.121 0.641 1.961 1.094 2.52 1.359 1.976 0.934 3.773 0.801 5.402-0.398 1.094-0.828 1.879-1.774 2.359-2.84 0.426-0.934 0.668-2.109 0.719-3.519 0.027-1.122-0.105-2.067-0.398-2.84-0.188-0.508-0.586-1.336-1.203-2.481l-1.2-2.359c-0.64-0.801-1.492-0.867-2.558-0.199-0.375 0.211-0.668 0.679-0.879 1.398-0.215 0.824-0.387 1.387-0.52 1.68-1.093 2.375-2.562 3.988-4.402 4.84-0.984-0.747-1.441-2.414-1.359-5 0.027-1.414 0.082-3.321 0.16-5.719-0.16-1.094-0.559-2.176-1.199-3.242-0.028-0.024-0.043-0.067-0.043-0.118l-1.918-2.082c-0.106-0.05-0.215-0.117-0.321-0.199l-0.039-0.039c-0.027 0-0.039-0.015-0.039-0.043h-0.043l-0.117-0.078c-0.83-0.32-1.53-0.586-2.12-0.801-0.22-0.051-0.4-0.105-0.56-0.16-1.01-0.266-1.73-0.48-2.16-0.641l-0.082-0.039c-0.266-0.082-0.547-0.16-0.84-0.242l-0.84-0.156-5.238-0.48h-0.762c-0.347 0.398-0.558 1.187-0.64 2.359-0.16 1.84-0.012 3.133 0.441 3.879 0.266 0.429 0.973 0.949 2.121 1.562 1.172 0.641 1.918 1.172 2.239 1.598 0.402 0.484 0.707 1.148 0.918 2 0.242 1.016 0.453 1.695 0.64 2.043-1.65-2.215-3.374-3.574-5.159-4.082-0.617-0.16-2.773-0.32-6.484-0.481-0.157-0.878-0.223-2.039-0.2-3.48-0.105-1.094-0.613-1.801-1.519-2.117 0.32 1.199 0.519 2.144 0.601 2.84 0.321 2.265 0.493 3.613 0.52 4.039 0.133 1.574 0.105 2.945-0.082 4.121-0.399-0.43-0.774-1.121-1.117-2.082-0.403-1.039-0.735-1.735-1-2.078-0.293-0.403-0.883-0.95-1.762-1.641-0.852-0.695-1.441-1.27-1.758-1.723-1.094-1.519-1.828-3.25-2.199-5.199l-0.16-0.199-0.082 0.039-0.121 0.082c1.203 4.133 2.656 8.066 4.363 11.801l2.238 5c0-0.453 0.055-0.844 0.16-1.16 2.614 1.707 4.547 2.89 5.801 3.558 2.266 1.227 4.371 2.067 6.317 2.52l0.8 0.121zm-74.479-16.082c1.41 1.203 3.504 2.629 6.277 4.281 1.469 0.883 2.43 1.789 2.883 2.719 0.426 0.828 0.625 2.148 0.598 3.961v0.601c0.105 0.586 0.199 1.305 0.281 2.16 0.133 1.2 0.215 1.934 0.238 2.2 0.266 2.398 0.481 3.746 0.641 4.039 0.402 0.695 1.187 1.027 2.359 1 0.641 0 1.613-0.039 2.922-0.117 0.801 0.105 1.465 0.277 2 0.519 0.531 0.266 1.094 0.664 1.68 1.199 1.121 1.039 1.812 1.668 2.078 1.879 0.933 0.828 1.789 1.442 2.562 1.84l1.399 0.32c0.535 0.082 0.972 0.2 1.32 0.36 1.121-0.133 2.066-0.867 2.84-2.199 0.988-1.762 1.176-3.801 0.559-6.118-0.559-2.16-1.614-3.871-3.161-5.121l-0.156-0.121-1.043 0.52c-2.48-1.785-4.48-3.028-6-3.719-2.105-0.988-4.344-1.547-6.719-1.68-0.48-4.027-0.375-7 0.321-8.922-2.535 0.243-5.309 0.36-8.321 0.36h-0.839c-2.614 0-4.188 0.011-4.719 0.039zm36.597 12.562c0.266 1.094 0.668 2.145 1.2 3.16 0.988 0.348 1.789 0.719 2.402 1.118v-0.2l-0.48-0.519c-0.454-0.481-1.055-1.078-1.801-1.801-0.586-0.613-1.028-1.199-1.321-1.758zm32.442 8.598c-1.469-1.25-2.735-2.438-3.801-3.559 1.199 1.602 2.465 2.786 3.801 3.559zm-46.922-22.957c0 0.027-0.012 0.039-0.039 0.039-0.293 2.691 0.746 4.215 3.121 4.559 2.371 0.375 3.801-0.719 4.277-3.278 0.082-0.32 0.121-0.828 0.121-1.523-0.425-0.024-0.828-0.051-1.199-0.078l-0.32-0.039-5.359 0.238c-0.082 0-0.161 0.016-0.243 0.039l-0.199 0.043h-0.16zm-10.758 33.758c0.106 0.133 0.211 0.265 0.32 0.402 1.653 0.691 3.348 1.172 5.079 1.438-0.051-0.293 0.027-0.598 0.242-0.918 0.183-0.293 0.543-0.75 1.078-1.36 0.426-0.562 0.695-1.082 0.801-1.562 0.215-1.172 0-2.16-0.641-2.961-0.586-0.746-1.414-1.199-2.48-1.356-2.801-0.457-4.454 0.25-4.961 2.118-0.16 0.64-0.145 1.375 0.043 2.199 0.293 0.879 0.464 1.547 0.519 2zm-20.281-18.598c-0.078-0.215-0.199-0.387-0.359-0.519-0.293-0.43-0.879-1-1.762-1.723-0.797-0.664-1.36-1.277-1.68-1.84-0.664-1.172-1.023-2.492-1.078-3.957-0.906 0.266-1.934 0.438-3.082 0.52 0.109 0.156 0.293 0.371 0.562 0.64 0.747 0.719 1.278 1.266 1.598 1.637 0.348 0.43 0.75 1.082 1.199 1.961 0.961 1.121 1.707 2.027 2.243 2.719 0.984 1.253 1.226 2.308 0.718 3.16-0.32 0.535-1.183 0.961-2.597 1.281-1.387 0.32-2.297 0.852-2.723 1.598-0.32 0.562-0.504 1.32-0.559 2.281-0.054 0.801-0.027 1.601 0.079 2.402 0.054 0.317 0.121 0.598 0.203 0.84 0.48-0.082 1.05-0.148 1.718-0.203l4-0.199c0.161-0.317 0.293-1.039 0.399-2.16 0-0.426 0.027-0.747 0.082-0.957 0.133-1.817 0.226-2.989 0.281-3.52 0.156-1.176 0.399-1.828 0.719-1.961l0.039-2z" inkscape:connector-curvature="0"/>
      <path id="path32" style="fill-rule:evenodd;fill:#a19581" d="m69.828 14.982c-0.344 1.653-0.277 3.2 0.199 4.641l0.043 0.199c0.586 1.629 1.614 3.055 3.078 4.281 0.856 0.692 2.414 1.719 4.68 3.079l10.16 6.402c0.215-0.988 0.016-1.813-0.597-2.481l-2.082-1.64c-2.829-2.238-4.614-4.426-5.36-6.559l-0.121-1.281c-0.023-0.32-0.332-0.613-0.918-0.879-0.293-0.16-0.894-0.226-1.801-0.203-0.933 0-1.586-0.09-1.961-0.277-0.906-0.508-1.679-1.653-2.32-3.442-0.637-1.812-1.426-2.984-2.359-3.519l-0.117 0.238c-0.215 0.348-0.391 0.828-0.524 1.441zm-50.16-5.281-0.719 0.481c-0.16 0.109-0.304 0.199-0.441 0.281-0.106 0.933-0.051 2.215 0.16 3.84 0.293 1.652 0.469 2.746 0.52 3.281 0.214 1.734 0.789 3.492 1.722 5.281 0.934 1.813 1.465 2.813 1.598 3 0.48 0.719 1.203 1.317 2.16 1.801l1.441 0.559 1.399 0.918c-0.719-0.504-1.465-1.454-2.238-2.84-0.481-0.852-1.106-2.051-1.879-3.598-0.375-0.695-0.657-1.535-0.84-2.523-0.297-1.493-0.481-2.372-0.563-2.637-0.183-0.586-0.453-1.613-0.8-3.082-0.344-1.438-0.626-2.52-0.84-3.238-0.211-0.75-0.387-1.282-0.52-1.602l-0.16 0.078zm-17.52 9.32-0.558-1.039-0.082-0.078-1.481 1.278c-0.183 1.734 0.524 4.535 2.121 8.402l0.68 1.641c0.133 0.293 0.266 0.585 0.402 0.878 0.747-0.187 1.321-0.425 1.719-0.718 0.481-0.375 0.774-0.895 0.879-1.559 0.082-0.508-0.183-1.336-0.801-2.484-0.316-0.614-0.746-1.371-1.277-2.278-0.215-0.402-0.48-1.054-0.801-1.961-0.347-0.988-0.613-1.679-0.801-2.082z" inkscape:connector-curvature="0"/>
    </g>
  </g>
<metadata><rdf:RDF><cc:Work><dc:format>image/svg+xml</dc:format><dc:type rdf:resource="http://purl.org/dc/dcmitype/StillImage"/><cc:license rdf:resource="http://creativecommons.org/licenses/publicdomain/"/><dc:publisher><cc:Agent rdf:about="http://openclipart.org/"><dc:title>Openclipart</dc:title></cc:Agent></dc:publisher></cc:Work><cc:License rdf:about="http://creativecommons.org/licenses/publicdomain/"><cc:permits rdf:resource="http://creativecommons.org/ns#Reproduction"/><cc:permits rdf:resource="http://creativecommons.org/ns#Distribution"/><cc:permits rdf:resource="http://creativecommons.org/ns#DerivativeWorks"/></cc:License></rdf:RDF></metadata></svg>
